:SAMPLES-PER-SECOND 30
:FULLY-SPECIFIED
:DEGREES
95
root  -39.4936 39.5552 -2.19158 38.225 -79.5238 -20.7245
RightUpLeg  -45.9305 -33.5237 24.5974
RightLeg  20.3318 7.30129 3.38027
RightFoot  3.53891 1.53117 -11.5026
RightToes  0.00048216 0.542163 -0.142577
Spine  60.9279 -2.03374 5.05272
Spine1  5.81457 1.25808 -3.05017
HEad  -40.2556 0.173429 -7.14204
LeftShoulder1  8.91841 -22.8722 -27.5871
LeftArm  -23.4317 -40.5951 -22.4889
LeftForeArm  0.669571 -33.8043 -7.4928
LeftHand  -0.25398 0.0180481 5.50724
RightShoulder  5.59984 14.7191 24.5616
RightArm  -24.2979 28.2304 21.141
RightForeArm  -26.8435 41.962 11.5719
RightHand  0.114883 -0.944754 3.23067
LeftUpLeg  -45.7365 22.525 -9.25804
LeftLeg  19.0537 -5.56619 -1.79087
LeftFoot  8.81876 -1.44944 7.83653
LeftToes  1.06244e-005 4.65855e-005 -8.18506e-006
96
root  -39.3614 39.7903 -2.40149 37.0305 -78.8649 -22.2422
RightUpLeg  -42.3036 -35.2457 23.1844
RightLeg  19.5994 8.83302 4.08746
RightFoot  4.72274 1.15905 -7.99821
RightToes  0.00048216 0.542163 -0.142577
Spine  58.8562 -1.92823 4.55052
Spine1  5.14002 1.08095 -3.2068
HEad  -38.0354 2.5706 -8.47054
LeftShoulder1  9.31554 -22.0158 -30.345
LeftArm  -19.8877 -33.5897 -24.2396
LeftForeArm  1.39834 -35.8046 -8.01334
LeftHand  -0.25398 0.0180481 5.50724
RightShoulder  5.79617 14.2984 26.4722
RightArm  -20.4403 23.8915 23.8673
RightForeArm  -25.2658 45.0439 12.7269
RightHand  0.0407723 -2.94652 3.07102
LeftUpLeg  -41.5449 23.2159 -7.13072
LeftLeg  16.5294 -6.51562 -2.29695
LeftFoot  10.115 -1.42344 7.17993
LeftToes  1.06244e-005 4.65855e-005 -8.18506e-006
97
root  -39.2272 39.9776 -2.62607 35.3363 -78.2058 -22.9686
RightUpLeg  -38.2146 -33.8924 19.5291
RightLeg  19.9513 12.3099 4.81623
RightFoot  4.96612 -0.0161407 0.39975
RightToes  0.00048216 0.542163 -0.142577
Spine  56.2928 -2.0403 4.33073
Spine1  5.08078 1.16161 -3.87646
HEad  -35.7282 5.01017 -10.0431
LeftShoulder1  9.84183 -21.4195 -33.3623
LeftArm  -18.4625 -26.3472 -24.8263
LeftForeArm  3.47585 -38.7223 -8.77388
LeftHand  -0.25398 0.0180481 5.50724
RightShoulder  6.04478 13.9246 28.6738
RightArm  -17.1928 19.6235 24.7156
RightForeArm  -23.9923 48.4692 14.2227
RightHand  -0.0260445 -4.90034 2.69777
LeftUpLeg  -37.1794 21.6658 -3.23566
LeftLeg  14.3343 -4.5914 -3.28223
LeftFoot  11.3988 -1.30239 6.12226
LeftToes  1.06244e-005 4.65855e-005 -8.18506e-006
98
root  -39.099 40.0506 -2.90441 32.6768 -77.3053 -22.6754
RightUpLeg  -32.9653 -26.3882 12.3592
RightLeg  21.4359 15.7577 6.51219
RightFoot  3.42908 -1.30022 10.2753
RightToes  0.00048216 0.542163 -0.142577
Spine  54.313 -2.22973 3.93733
Spine1  3.99972 1.09141 -4.23691
HEad  -33.6072 7.70166 -12.0982
LeftShoulder1  10.2694 -20.2882 -36.993
LeftArm  -17.9359 -18.6741 -24.4864
LeftForeArm  5.74896 -43.055 -10.0883
LeftHand  -0.25398 0.0180481 5.50724
RightShoulder  6.07692 13.2657 30.26
RightArm  -13.3731 15.891 25.2187
RightForeArm  -23.1913 51.9128 15.9969
RightHand  -0.0536274 -6.03678 1.28877
LeftUpLeg  -33.59 19.1765 0.533674
LeftLeg  13.2511 -2.15576 -4.29577
LeftFoot  12.1207 -1.18387 5.33572
LeftToes  1.06244e-005 4.65855e-005 -8.18506e-006
99
root  -38.9787 40.0027 -3.28832 28.6971 -75.8937 -21.3944
RightUpLeg  -28.8668 -15.8725 5.77929
RightLeg  24.917 19.1225 9.25335
RightFoot  0.2763 -1.65392 16.106
RightToes  0.00048216 0.542163 -0.142577
Spine  51.9158 -2.38411 3.51239
Spine1  4.04085 0.740282 -3.80369
HEad  -32.4207 10.7438 -14.454
LeftShoulder1  10.5405 -18.998 -40.5227
LeftArm  -18.1564 -11.7465 -23.4498
LeftForeArm  7.22845 -47.7056 -11.818
LeftHand  -0.25398 0.0180481 5.50724
RightShoulder  5.94311 12.6216 30.8907
RightArm  -9.84123 13.5124 25.7583
RightForeArm  -22.8996 54.5245 17.5926
RightHand  -0.0377677 -6.37634 -0.936428
LeftUpLeg  -30.7434 17.1902 3.23234
LeftLeg  13.2575 -1.48667 -5.1082
LeftFoot  12.346 -1.13605 5.05177
LeftToes  1.06244e-005 4.65855e-005 -8.18506e-006
100
root  -38.8672 39.9415 -3.80344 22.9725 -73.8347 -18.638
RightUpLeg  -25.475 -5.82636 1.34866
RightLeg  29.2266 21.1208 12.1249
RightFoot  -3.06158 -1.29245 17.4053
RightToes  0.00048216 0.542163 -0.142577
Spine  49.5828 -2.57902 3.24156
Spine1  4.82136 0.163181 -3.12136
HEad  -31.0193 14.6907 -16.7622
LeftShoulder1  10.5231 -18.0565 -42.3712
LeftArm  -18.7502 -5.26338 -23.4049
LeftForeArm  8.39136 -51.8667 -13.7078
LeftHand  -0.25398 0.0180481 5.50724
RightShoulder  5.7761 12.048 31.1842
RightArm  -7.04077 11.538 26.4719
RightForeArm  -22.3736 56.4385 18.9075
RightHand  -0.0121983 -6.90082 -2.62404
LeftUpLeg  -27.7874 15.5897 5.00803
LeftLeg  12.7924 -2.21953 -5.73894
LeftFoot  12.9784 -0.985751 4.20587
LeftToes  1.06244e-005 4.65855e-005 -8.18506e-006
101
root  -38.7846 39.8452 -4.44022 15.4534 -70.9237 -13.9151
RightUpLeg  -21.7869 1.82376 -1.22246
RightLeg  32.5596 21.8941 14.1977
RightFoot  -6.45928 -0.745043 16.1812
RightToes  0.00048216 0.542163 -0.142577
Spine  47.3255 -2.82785 3.0658
Spine1  5.43483 -0.506861 -2.65211
HEad  -28.8791 19.4406 -18.9914
LeftShoulder1  10.3306 -17.5817 -42.5538
LeftArm  -19.3961 0.822353 -24.6699
LeftForeArm  9.90056 -55.2774 -15.5351
LeftHand  -0.25398 0.0180481 5.50724
RightShoulder  5.66149 11.5412 31.6812
RightArm  -5.28033 8.81726 27.1239
RightForeArm  -20.8152 58.2882 20.2664
RightHand  0.0160338 -8.07192 -3.06057
LeftUpLeg  -25.1891 14.083 5.58236
LeftLeg  12.1318 -3.63261 -6.20955
LeftFoot  13.9055 -0.637849 2.4652
LeftToes  1.06244e-005 4.65855e-005 -8.18506e-006
